<svg width="28" height="11" viewBox="0 0 28 11" fill="none" xmlns="http://www.w3.org/2000/svg">
<path d="M27.7484 9.83867L25.3203 1.42187C25.2256 1.09302 25.0306 0.804834 24.7643 0.600578C24.4981 0.396321 24.1751 0.287013 23.8437 0.28906H22.75C22.5759 0.28906 22.409 0.36067 22.2859 0.488136C22.1629 0.615603 22.0937 0.788483 22.0937 0.968748C22.0937 1.14901 22.1629 1.32189 22.2859 1.44936C22.409 1.57683 22.5759 1.64844 22.75 1.64844H23.8437C23.8912 1.64954 23.9374 1.6652 23.9763 1.69342C24.0152 1.72165 24.0452 1.76118 24.0625 1.80703L26.2391 9.35156H22.3672L20.0703 1.42187C19.9756 1.09302 19.7806 0.804834 19.5143 0.600578C19.2481 0.396321 18.9251 0.287013 18.5937 0.28906H17.5C17.3259 0.28906 17.159 0.36067 17.036 0.488136C16.9129 0.615603 16.8437 0.788483 16.8437 0.968748C16.8437 1.14901 16.9129 1.32189 17.036 1.44936C17.159 1.57683 17.3259 1.64844 17.5 1.64844H18.5937C18.6412 1.64954 18.6874 1.6652 18.7263 1.69342C18.7652 1.72165 18.7952 1.76118 18.8125 1.80703L20.9891 9.35156H17.1172L14.8203 1.42187C14.7256 1.09302 14.5306 0.804834 14.2643 0.600578C13.9981 0.396321 13.6751 0.287013 13.3437 0.28906H4.15624C3.82492 0.287013 3.5019 0.396321 3.23566 0.600578C2.96943 0.804834 2.77434 1.09302 2.67968 1.42187L0.251553 9.82734C0.227858 9.89244 0.216711 9.96171 0.218741 10.0312C0.218741 10.2115 0.287881 10.3844 0.410952 10.5119C0.534023 10.6393 0.700942 10.7109 0.874991 10.7109H27.125C27.299 10.7109 27.466 10.6393 27.589 10.5119C27.7121 10.3844 27.7812 10.2115 27.7812 10.0312C27.7819 9.96551 27.7708 9.90021 27.7484 9.83867ZM3.93749 1.80703C3.95476 1.76118 3.98475 1.72165 4.02368 1.69342C4.06261 1.6652 4.10873 1.64954 4.15624 1.64844H13.3437C13.3912 1.64954 13.4374 1.6652 13.4763 1.69342C13.5152 1.72165 13.5452 1.76118 13.5625 1.80703L15.7391 9.35156H1.76093L3.93749 1.80703Z" fill="black"/>
</svg>
