<svg width="32" height="30" viewBox="0 0 22 20" fill="#000000" xmlns="http://www.w3.org/2000/svg">
<path d="M10 19.5899L6.825 16.5985C5.625 15.4614 4.596 14.4467 3.738 13.5546C2.87933 12.6624 2.171 11.8227 1.613 11.0355C1.05433 10.2482 0.646 9.48726 0.388 8.75253C0.129333 8.01779 0 7.24806 0 6.44335C0 4.79894 0.525 3.42988 1.575 2.33617C2.625 1.24316 3.93333 0.696655 5.5 0.696655C6.36667 0.696655 7.19167 0.889086 7.975 1.27395C8.75833 1.65881 9.43333 2.20112 10 2.90087C10.5667 2.20112 11.2417 1.65881 12.025 1.27395C12.8083 0.889086 13.6333 0.696655 14.5 0.696655C15.85 0.696655 16.9833 1.09446 17.9 1.89008C18.8167 2.68639 19.4417 3.68809 19.775 4.89515H17.65C17.35 4.1954 16.9083 3.67059 16.325 3.32072C15.7417 2.97084 15.1333 2.79591 14.5 2.79591C13.65 2.79591 12.9167 3.03662 12.3 3.51805C11.6833 3.99878 11.1083 4.63275 10.575 5.41997H9.425C8.90833 4.63275 8.321 3.99878 7.663 3.51805C7.00433 3.03662 6.28333 2.79591 5.5 2.79591C4.55 2.79591 3.729 3.14123 3.037 3.83188C2.34567 4.52324 2 5.39373 2 6.44335C2 7.02065 2.11667 7.60669 2.35 8.20147C2.58333 8.79626 3 9.48307 3.6 10.2619C4.2 11.04 5.01667 11.9493 6.05 12.9899C7.08333 14.0311 8.4 15.2864 10 16.7559C10.4333 16.3536 10.9417 15.89 11.525 15.3652C12.1083 14.8404 12.575 14.403 12.925 14.0531L13.15 14.2893L13.637 14.8015L14.125 15.3127L14.35 15.5488C13.9833 15.8987 13.5167 16.3315 12.95 16.8472C12.3833 17.3636 11.8833 17.823 11.45 18.2254L10 19.5899ZM17 15.3914V12.2425H14V10.1433H17V6.9944H19V10.1433H22V12.2425H19V15.3914H17Z" fill="black"/>
</svg>
