<svg width="41" height="40" viewBox="0 0 51 50" fill="none" xmlns="http://www.w3.org/2000/svg">
<g clip-path="url(#clip0_37_228)">
<path fill-rule="evenodd" clip-rule="evenodd" d="M25.5 0C11.6875 0 0.5 11.1875 0.5 25C0.5 36.0625 7.65625 45.4062 17.5937 48.7187C18.8437 48.9375 19.3125 48.1875 19.3125 47.5312C19.3125 46.9375 19.2812 44.9687 19.2812 42.875C13 44.0312 11.375 41.3437 10.875 39.9375C10.5937 39.2187 9.375 37 8.3125 36.4062C7.4375 35.9375 6.1875 34.7812 8.28125 34.75C10.25 34.7187 11.6562 36.5625 12.125 37.3125C14.375 41.0937 17.9687 40.0312 19.4062 39.375C19.625 37.75 20.2812 36.6562 21 36.0312C15.4375 35.4062 9.625 33.25 9.625 23.6875C9.625 20.9687 10.5937 18.7188 12.1875 16.9688C11.9375 16.3438 11.0625 13.7812 12.4375 10.3437C12.4375 10.3437 14.5312 9.6875 19.3125 12.9062C21.3125 12.3437 23.4375 12.0625 25.5625 12.0625C27.6875 12.0625 29.8125 12.3437 31.8125 12.9062C36.5937 9.65625 38.6875 10.3437 38.6875 10.3437C40.0625 13.7812 39.1875 16.3438 38.9375 16.9688C40.5313 18.7188 41.5 20.9375 41.5 23.6875C41.5 33.2812 35.6562 35.4062 30.0937 36.0312C31 36.8125 31.7812 38.3125 31.7812 40.6562C31.7812 44 31.75 46.6875 31.75 47.5312C31.75 48.1875 32.2187 48.9687 33.4687 48.7187C38.4316 47.0432 42.7441 43.8535 45.7993 39.5987C48.8545 35.3439 50.4985 30.2381 50.5 25C50.5 11.1875 39.3125 0 25.5 0Z" fill="black"/>
</g>
<defs>
<clipPath id="clip0_37_228">
<rect width="50" height="50" fill="white" transform="translate(0.5)"/>
</clipPath>
</defs>
</svg>
