<svg width="41" height="40" viewBox="0 0 51 50" fill="none" xmlns="http://www.w3.org/2000/svg">
<path d="M43.1013 42.6022H35.6929V31C35.6929 28.2334 35.6435 24.6719 31.8398 24.6719C27.9812 24.6719 27.3908 27.6864 27.3908 30.7987V42.6014H19.9826V18.7428H27.0945V22.0034H27.1941C27.9058 20.7864 28.9343 19.7852 30.17 19.1065C31.4057 18.4278 32.8024 18.097 34.2113 18.1493C41.7201 18.1493 43.1044 23.0883 43.1044 29.5137L43.1013 42.6022V42.6022ZM11.6232 15.4817C9.24877 15.4821 7.32357 13.5575 7.32318 11.1831C7.32279 8.80864 9.2472 6.88345 11.6216 6.88306C13.996 6.88247 15.9212 8.80708 15.9216 11.1815C15.9218 12.3217 15.4691 13.4154 14.663 14.2218C13.8569 15.0282 12.7634 15.4814 11.6232 15.4817M15.3275 42.6024H7.91127V18.7428H15.3273V42.6022L15.3275 42.6024ZM46.7947 0.00278455H4.18861C2.17494 -0.0198717 0.523572 1.59321 0.498962 3.60689V46.3907C0.522791 48.4053 2.17396 50.02 4.18842 49.9989H46.7947C48.8134 50.0239 50.471 48.4092 50.499 46.3907V3.60357C50.4703 1.58599 48.8124 -0.0269029 46.7947 -0.000535763" fill="#0A66C2"/>
</svg>
